<svg preserveAspectRatio="none" width="100%" height="100%" overflow="visible" style="display: block;" viewBox="0 0 61.5129 37.6276" fill="none" xmlns="http://www.w3.org/2000/svg">
<path id="Beard" d="M30.1062 27.5052C26.855 29.3909 16.7112 19.4422 14.3053 14.8905C11.6523 11.3013 9.47186 3.46801 8.71324 0L0 5.33198L5.26696 15.5067C6.04725 16.4171 12.7447 25.7806 24.059 31.7628C33.6217 36.8189 41.8916 38.2617 49.4184 37.3889C56.441 36.5746 60.0824 32.1529 61.5129 29.2609C59.9523 30.8735 56.9612 31.865 55.9208 31.6668C54.5553 31.4067 54.1001 30.1712 54.2952 26.2698C53.2548 27.3102 48.8332 27.1801 47.0125 26.855C47.1165 27.0631 46.9692 29.1525 46.8825 30.1712C46.6874 33.0323 44.4766 32.7072 42.4608 32.5771C40.1199 32.5771 36.0884 31.4067 34.2027 30.1712C33.3574 29.8461 32.0569 26.92 32.0569 25.0343C31.4067 26.7249 30.5614 27.2412 30.1062 27.5052Z" fill="#9D6844"/>
</svg>
